<svg width="20" height="16" viewBox="0 0 20 16" fill="none" xmlns="http://www.w3.org/2000/svg">
<path d="M15.2125 9.25L11.4426 13.0304C11.053 13.4211 11.0535 14.0535 11.4436 14.4436L11.7929 14.7929C12.1834 15.1834 12.8166 15.1834 13.2071 14.7929L19.2929 8.70711C19.6834 8.31658 19.6834 7.68342 19.2929 7.29289L13.2071 1.20711C12.8166 0.816583 12.1834 0.816582 11.7929 1.20711L11.4436 1.55638C11.0535 1.94652 11.053 2.57892 11.4426 2.96961L15.2125 6.75H1C0.447716 6.75 0 7.19772 0 7.75V8.25C0 8.80229 0.447715 9.25 1 9.25H15.2125Z" fill="url(#paint0_linear_1907_390)"/>
<defs>
<linearGradient id="paint0_linear_1907_390" x1="18.2344" y1="1.51389" x2="4.46359" y2="6.79823" gradientUnits="userSpaceOnUse">
<stop stop-color="#09F2C3"/>
<stop offset="1" stop-color="#15DCE4"/>
</linearGradient>
</defs>
</svg>
