<svg width="16" height="16" viewBox="0 0 16 16" fill="none" xmlns="http://www.w3.org/2000/svg">
<path fill-rule="evenodd" clip-rule="evenodd" d="M0 1.90476C0 0.852792 0.852791 0 1.90476 0H8C9.05197 0 9.90476 0.852791 9.90476 1.90476V10.0317C9.90476 11.0837 9.05197 11.9365 8 11.9365H1.90476C0.852791 11.9365 0 11.0837 0 10.0317V1.90476ZM1.90476 1.77778C1.83463 1.77778 1.77778 1.83463 1.77778 1.90476V10.0317C1.77778 10.1019 1.83463 10.1587 1.90476 10.1587H8C8.07013 10.1587 8.12698 10.1019 8.12698 10.0317V1.90476C8.12698 1.83463 8.07013 1.77778 8 1.77778H1.90476ZM14.0952 5.84127H11.0476V4.06349H14.0952C15.1472 4.06349 16 4.91628 16 5.96825V14.0952C16 15.1472 15.1472 16 14.0952 16H8C6.94803 16 6.09524 15.1472 6.09524 14.0952V12.8889H7.87302V14.0952C7.87302 14.1654 7.92987 14.2222 8 14.2222H14.0952C14.1654 14.2222 14.2222 14.1654 14.2222 14.0952V5.96825C14.2222 5.89812 14.1654 5.84127 14.0952 5.84127Z" fill="white"/>
</svg>
