<svg width="41" height="40" viewBox="0 0 41 40" fill="none" xmlns="http://www.w3.org/2000/svg">
<path fill-rule="evenodd" clip-rule="evenodd" d="M8.55999 0C3.83244 0 0 3.82319 0 8.53933V31.4607C0 36.1768 3.83244 40 8.55999 40H31.5368C36.2644 40 40.0968 36.1768 40.0968 31.4607V8.53933C40.0968 3.82319 36.2644 0 31.5368 0H8.55999ZM7.02455 15.4541C6.27857 16.7936 5.90557 18.3234 5.90557 20.0433C5.90557 21.7632 6.27857 23.2929 7.02455 24.6324C7.77054 25.9719 8.80663 27.0221 10.1328 27.7828C11.4756 28.527 12.9924 28.8991 14.6833 28.8991C16.7555 28.8991 18.5293 28.3616 20.0047 27.2867C21.4801 26.1952 22.4665 24.7068 22.9638 22.8216H18.2889C17.9408 23.5492 17.4435 24.1032 16.797 24.4836C16.167 24.8639 15.4459 25.0541 14.6336 25.0541C13.324 25.0541 12.263 24.5993 11.4507 23.6898C10.6384 22.7802 10.2323 21.5647 10.2323 20.0433C10.2323 18.5218 10.6384 17.3063 11.4507 16.3967C12.263 15.4872 13.324 15.0324 14.6336 15.0324C15.4459 15.0324 16.167 15.2226 16.797 15.6029C17.4435 15.9833 17.9408 16.5373 18.2889 17.265H22.9638C22.4665 15.3797 21.4801 13.8913 20.0047 12.7998C18.5293 11.7084 16.7555 11.1626 14.6833 11.1626C12.9924 11.1626 11.4756 11.543 10.1328 12.3037C8.80663 13.0479 7.77054 14.098 7.02455 15.4541ZM31.6849 15.4541C30.9389 15.8841 30.3172 16.4794 29.8199 17.2402V14.9332H25.5678V28.775H29.8199V22.3502C29.8199 21.2092 30.0851 20.4154 30.6156 19.9688C31.1461 19.5058 31.9418 19.2743 33.0028 19.2743H34.1715V14.7843C33.2597 14.7843 32.4308 15.0076 31.6849 15.4541Z" fill="white"/>
</svg>
